<svg xmlns="http://www.w3.org/2000/svg" viewBox="820 -130 900 900" preserveAspectRatio="xMidYMid meet" aria-label="Gewest Voetbal mascot">
<g transform="translate(0.000000,1164.000000) scale(0.100000,-0.100000)"
fill="#FAF7EE" stroke="none">
<path d="M12585 11629 c-163 -22 -324 -78 -442 -154 -47 -31 -69 -40 -71 -31
-2 9 -58 24 -165 45 -822 161 -1417 1 -1729 -463 -154 -231 -247 -542 -248
-833 l0 -81 -84 -66 c-157 -123 -257 -250 -351 -449 -171 -363 -313 -911 -360
-1389 -17 -173 -40 -262 -91 -355 l-35 -61 26 -39 c25 -38 49 -59 180 -154
256 -186 650 -282 1023 -250 208 19 346 28 351 25 1 -1 -8 -18 -22 -36 -74
-99 -102 -196 -102 -358 l0 -125 -110 0 c-407 -2 -613 -293 -616 -870 l0 -160
-65 175 c-165 448 -213 573 -310 817 -174 438 -318 753 -413 900 -90 140 -210
129 -212 -21 0 -61 0 -61 -17 -36 -50 73 -84 101 -121 98 -64 -5 -78 -85 -41
-228 l19 -75 -26 35 c-132 173 -247 168 -220 -10 15 -100 47 -193 132 -375 46
-99 113 -245 149 -323 75 -167 199 -399 334 -626 52 -89 155 -273 230 -411
140 -260 208 -380 275 -478 21 -32 37 -60 35 -61 -3 -3 -627 271 -661 290 -10
6 -153 142 -318 303 l-299 293 0 -301 0 -301 49 -68 c59 -82 134 -201 190
-304 l43 -78 174 0 c96 0 174 2 174 5 0 9 -87 175 -121 234 -18 30 -26 51 -18
46 8 -5 63 -42 123 -83 71 -50 158 -97 252 -139 l144 -63 317 0 318 0 -99 44
c-108 48 -119 58 -226 216 -76 113 -145 233 -279 483 -62 114 -165 298 -230
410 -172 296 -263 466 -346 652 -41 91 -106 232 -144 313 -66 139 -121 298
-121 346 1 17 8 13 47 -29 42 -45 193 -330 193 -363 0 -39 74 -47 85 -10 7 21
6 25 -67 331 -27 115 -47 211 -45 214 16 15 144 -247 188 -386 27 -83 53 -110
88 -91 37 19 15 178 -59 419 -21 68 -26 141 -10 141 74 0 406 -762 767 -1759
107 -297 146 -375 189 -379 61 -6 66 23 45 243 -44 452 67 774 307 892 70 35
80 37 190 41 155 5 157 4 192 -97 56 -160 155 -338 279 -501 32 -41 60 -80 64
-86 4 -6 -7 -51 -23 -99 -103 -305 -119 -627 -44 -867 l25 -78 64 0 c36 0 65
2 65 4 0 2 -11 33 -25 70 -51 136 -69 346 -44 523 12 88 64 302 77 315 4 4 62
-45 128 -110 121 -119 235 -219 219 -192 -5 8 -59 83 -121 165 -563 756 -705
1203 -474 1494 42 53 112 94 222 130 21 7 44 20 50 30 7 9 45 39 83 65 133 93
419 337 345 294 -391 -227 -424 -243 -460 -228 -22 9 -44 7 -121 -13 -121 -32
-131 -34 -339 -53 -508 -47 -750 -22 -1018 106 l-103 49 7 50 c9 68 -17 142
-68 193 l-40 40 11 59 c7 33 16 112 22 177 44 550 274 1291 480 1546 302 376
1079 652 1829 650 360 -1 473 -36 622 -193 278 -293 474 -595 571 -876 47
-136 57 -191 61 -336 5 -142 8 -154 47 -174 79 -41 123 1 127 123 l4 90 101
21 c317 65 649 67 955 5 771 -154 1431 -789 1641 -1579 17 -60 43 -155 59
-210 169 -573 38 -1175 -363 -1671 -138 -170 -445 -445 -514 -460 -64 -14
-202 -55 -261 -78 l-65 -25 580 0 580 0 -56 29 c-101 52 -235 89 -383 105
l-58 7 109 106 c598 585 808 1348 574 2087 -16 50 -41 135 -55 189 -237 878
-1031 1578 -1915 1689 l-104 13 86 62 c646 469 714 1192 167 1766 -340 357
-1043 602 -1535 535z m510 -193 c491 -104 834 -312 1050 -635 328 -493 198
-1017 -340 -1373 -132 -88 -276 -158 -324 -158 -59 0 -275 -29 -375 -51 -49
-10 -90 -18 -91 -16 -3 3 -57 188 -62 213 -4 15 16 38 88 100 127 109 296 289
391 414 324 431 286 786 -103 978 -282 138 -548 120 -811 -55 -85 -56 -254
-221 -316 -308 l-43 -61 -82 27 c-45 15 -126 34 -180 42 -118 17 -113 12 -97
89 75 384 309 681 616 782 166 54 455 60 679 12z m-1570 -57 c114 -10 404 -54
413 -63 2 -3 -19 -34 -47 -70 -129 -169 -225 -399 -266 -638 l-6 -38 -100 0
c-408 0 -997 -142 -1370 -330 l-56 -29 4 57 c43 617 403 1027 968 1101 169 23
289 25 460 10z m1608 -566 c29 -8 88 -33 132 -56 331 -170 297 -445 -110 -901
-71 -80 -261 -256 -275 -256 -5 0 -25 33 -46 73 -105 203 -279 439 -466 633
l-78 80 37 50 c245 326 529 459 806 377z"/>
<path d="M12434 9335 c-71 -35 -177 -95 -236 -132 -141 -89 -1117 -867 -1104
-880 6 -6 298 175 666 413 129 84 280 181 335 217 161 104 392 302 476 408 45
57 18 52 -137 -26z"/>
<path d="M10448 8595 c-155 -121 -176 -284 -57 -442 47 -63 45 -63 115 -18
243 156 264 333 55 467 -56 35 -58 35 -113 -7z"/>
<path d="M12575 8380 c-143 -13 -1202 -192 -1240 -210 -41 -18 718 15 1140 51
195 16 561 103 572 135 7 22 -315 39 -472 24z"/>
<path d="M12741 7915 c-151 -33 -315 -147 -417 -289 l-22 -30 -90 42 c-207 96
-482 200 -654 246 l-93 25 53 -49 c155 -145 427 -287 645 -336 87 -20 85 -18
53 -82 -51 -102 -126 -379 -126 -465 0 -45 -11 -26 -37 64 -60 206 -115 303
-180 315 -67 13 -133 -91 -133 -210 0 -60 -13 -47 -37 36 -41 141 -67 177
-117 164 -31 -8 -48 -48 -54 -130 l-5 -69 -27 54 c-57 113 -126 144 -157 72
-56 -134 109 -801 503 -2030 l65 -203 39 0 c22 0 40 3 40 8 0 4 -39 129 -86
277 -185 583 -354 1164 -424 1459 -37 155 -76 396 -64 396 16 0 114 -240 163
-399 34 -108 53 -131 91 -111 29 15 26 57 -16 277 -48 256 -50 281 -9 128 87
-323 125 -397 185 -365 25 13 27 70 5 183 -26 135 -18 318 15 367 40 58 138
-232 224 -662 59 -294 246 -1475 246 -1553 0 -3 18 -5 40 -5 48 0 47 -17 14
202 -27 184 -28 302 -3 603 14 175 25 224 83 380 259 686 504 975 736 868 187
-85 421 -443 640 -975 35 -86 66 -156 68 -154 13 14 -94 384 -163 561 -380
982 -935 970 -1319 -27 -66 -172 -133 -386 -141 -453 -8 -59 -9 -54 -50 185
-23 135 -50 280 -59 324 -22 106 -21 113 20 272 64 252 133 454 200 586 34 68
34 68 77 68 l42 1 -27 22 c-32 26 -30 30 46 126 96 122 261 233 394 263 62 15
66 23 15 32 -57 9 -121 6 -192 -9z"/>
<path d="M10543 5043 c15 -2 37 -2 50 0 12 2 0 4 -28 4 -27 0 -38 -2 -22 -4z"/>
</g>
</svg>
